HIERARCHY
ROOT Hips
{
  OFFSET -9.97696 90.5413 -43.1923
  CHANNELS 6 Xposition Yposition Zposition Zrotation Xrotation Yrotation
  JOINT ToSpine
  {
    OFFSET -2.69724 7.43032 -0.144315
    CHANNELS 3 Zrotation Xrotation Yrotation
    JOINT Spine
    {
      OFFSET -0.0310711 10.7595 1.96963
      CHANNELS 3 Zrotation Xrotation Yrotation
      JOINT Spine1
      {
        OFFSET 13.1342 3.43533 0.764692
        CHANNELS 3 Zrotation Xrotation Yrotation
        JOINT Neck
        {
          OFFSET 29.8703 7.82586 -0.130764
          CHANNELS 3 Zrotation Xrotation Yrotation
          JOINT Head
          {
            OFFSET 9.52751 0.295786 -0.907742
            CHANNELS 3 Zrotation Xrotation Yrotation
            End Site
            {
              OFFSET 16.4037 0.713936 2.7358
            }
          }
        }
        JOINT LeftShoulder
        {
          OFFSET 27.5574 4.95586 2.47156
          CHANNELS 3 Zrotation Xrotation Yrotation
          JOINT LeftArm
          {
            OFFSET 1.20734 -0.998971 20.1238
            CHANNELS 3 Zrotation Xrotation Yrotation
            JOINT LeftForeArm
            {
              OFFSET 26.8049 -0.0536703 -0.155908
              CHANNELS 3 Zrotation Xrotation Yrotation
              JOINT LeftHand
              {
                OFFSET 26.6817 0 0.320147
                CHANNELS 3 Zrotation Xrotation Yrotation
                End Site
                {
                  OFFSET 18.6119 0 0.382219
                }
              }
            }
          }
        }
        JOINT RightShoulder
        {
          OFFSET 27.5927 4.71444 -2.65209
          CHANNELS 3 Zrotation Xrotation Yrotation
          JOINT RightArm
          {
            OFFSET 2.83739 -1.17114 -18.7564
            CHANNELS 3 Zrotation Xrotation Yrotation
            JOINT RightForeArm
            {
              OFFSET 28.839 -0.0548439 1.22491
              CHANNELS 3 Zrotation Xrotation Yrotation
              JOINT RightHand
              {
                OFFSET 26.5114 0 -0.101894
                CHANNELS 3 Zrotation Xrotation Yrotation
                End Site
                {
                  OFFSET 18.2168 0 0
                }
              }
            }
          }
        }
      }
    }
  }
  JOINT LeftUpLeg
  {
    OFFSET -4.76168 -1.9167 -10.2353
    CHANNELS 3 Zrotation Xrotation Yrotation
    JOINT LeftLeg
    {
      OFFSET 2.55951 -42.0585 -8.02213
      CHANNELS 3 Zrotation Xrotation Yrotation
      JOINT LeftFoot
      {
        OFFSET 3.16357 -42.5282 -3.95426
        CHANNELS 3 Zrotation Xrotation Yrotation
        JOINT LeftToeBase
        {
          OFFSET 0.346054 -6.02161 12.8035
          CHANNELS 3 Zrotation Xrotation Yrotation
          End Site
          {
            OFFSET 0.134235 -1.35082 5.13018
          }
        }
      }
    }
  }
  JOINT RightUpLeg
  {
    OFFSET -4.94151 -1.41743 10.6446
    CHANNELS 3 Zrotation Xrotation Yrotation
    JOINT RightLeg
    {
      OFFSET -2.56294 -42.0364 -7.94377
      CHANNELS 3 Zrotation Xrotation Yrotation
      JOINT RightFoot
      {
        OFFSET -3.0952 -42.555 -4.02241
        CHANNELS 3 Zrotation Xrotation Yrotation
        JOINT RightToeBase
        {
          OFFSET -0.0828122 -6.13587 12.8035
          CHANNELS 3 Zrotation Xrotation Yrotation
          End Site
          {
            OFFSET -0.131328 -1.35082 5.13018
          }
        }
      }
    }
  }
}
MOTION
Frames:	15
Frame Time:	0.0333333
-9.97696 90.5413 -43.1923 71.9505 -32.371 -7.54609 -70.1915 0 88.8779 101.754 72.0262 -16.8813 -3.64513 20.9036 6.0616 -121.219 34.6108 153.747 172.65 78.9279 -141.848 0.105982 -15.6495 -27.3956 -63.0515 32.7188 -137.86 17.2433 -1.93116 -95.4379 0.420957 0.000575918 0.35866 -2.20938 6.9434 46.1194 -134.039 -2.84503 93.4883 17.8045 -2.97088 80.6728 0.58676 0.00033077 0.0646653 -41.0461 13.9458 98.0233 -5.67928 58.2188 -7.3146 2.14215 -18.2226 -1.48296 4.04478 -11.8904 19.683 -37.5311 -16.9351 75.6234 2.3779 42.5929 3.58132 -3.15921 -4.39616 0.775531 0.511525 -5.77624 1.54445 
-9.97023 90.569 -43.1923 71.9592 -32.42 -7.52222 -70.1915 0 88.8779 101.323 72.1102 -16.37 -3.33931 20.9622 6.01937 -121.704 34.6469 154.122 172.306 78.7668 -141.601 0.116418 -15.5606 -27.4963 -63.0902 32.4957 -138.02 17.1661 -1.92619 -95.4509 0.420957 0.000575918 0.35866 -2.19539 6.93607 45.9593 -134.334 -3.09956 93.5353 18.0008 -3.00397 80.6781 0.58676 0.00033077 0.0646653 -41.1149 14.0196 98.1043 -5.64332 58.134 -7.26285 2.1292 -18.2862 -1.48751 3.986 -11.7819 19.4699 -37.5638 -16.9038 75.6277 2.39345 42.6142 3.62484 -2.8683 -4.3451 0.746127 0.490618 -5.52482 1.43122 
-9.95271 90.6236 -43.1923 72.0204 -32.4587 -7.53263 -70.1915 0 88.8779 100.782 72.3119 -15.9003 -2.89766 21.0714 6.17855 -122.748 34.6751 154.924 171.939 78.4001 -141.278 0.0760131 -15.6887 -27.8523 -63.2083 32.1811 -137.999 17.0499 -1.93071 -95.5087 0.420957 0.000575918 0.35866 -2.14567 6.85213 45.6476 -134.907 -3.50609 93.6323 18.3273 -3.09007 80.5997 0.58676 0.00033077 0.0646653 -41.2659 13.9748 98.1693 -5.59834 57.9959 -7.26668 2.05822 -18.5811 -1.50891 3.66043 -11.3591 19.7323 -37.5956 -16.8465 75.8726 2.38418 42.7398 3.42362 -2.52596 -4.33699 0.713991 0.43915 -5.14329 1.43265 
-9.96653 90.6335 -43.1923 72.0887 -32.3849 -7.53148 -70.1915 0 88.8779 100.877 72.5183 -16.2727 -2.82468 21.1518 6.61935 -123.24 34.8241 154.795 173.455 78.6229 -142.898 0.023717 -15.9001 -28.1314 -63.1789 32.0252 -138.315 16.8532 -1.90482 -95.5007 0.420957 0.000575918 0.35866 -2.02752 6.60985 45.0722 -135.098 -3.60095 93.4428 18.2359 -3.05631 80.6487 0.58676 0.00033077 0.0646653 -41.3348 13.8895 98.1749 -5.55767 57.8938 -7.21785 2.10977 -18.4891 -1.50111 3.62676 -11.2998 19.6417 -37.6406 -16.9779 75.784 2.41328 42.799 3.60888 -2.47446 -4.35257 0.710228 0.445139 -5.06577 1.29297 
-9.97723 90.6512 -43.1923 72.0675 -32.3569 -7.56757 -70.1915 0 88.8779 100.433 72.5699 -15.8928 -2.64102 21.1586 6.65308 -123.497 34.8962 154.76 174.196 78.7211 -143.778 0.0490195 -15.8074 -27.9661 -63.1282 32.0577 -138.692 16.8818 -1.88192 -95.4164 0.420957 0.000575918 0.35866 -2.02274 6.65556 44.7929 -135.121 -3.76419 93.348 18.1452 -3.05271 80.6126 0.58676 0.00033077 0.0646653 -41.3328 13.8415 98.1681 -5.53292 57.8438 -7.16038 2.01299 -18.5396 -1.50782 3.59526 -11.2348 19.4839 -37.6311 -16.949 75.9076 2.41967 42.7556 3.70108 -2.10547 -4.4515 0.68175 0.469904 -4.85353 0.861338 
-9.99189 90.6549 -43.1919 71.9927 -32.3504 -7.59548 -70.1915 0 88.8779 100.307 72.5188 -15.6198 -2.60998 21.1622 6.43947 -123.512 34.893 154.708 174.432 78.7464 -144.062 0.0738994 -15.7048 -27.8378 -63.0802 32.0547 -138.738 16.8181 -1.91154 -95.5357 0.420957 0.000575918 0.35866 -2.03639 6.64339 45.046 -135.067 -3.7009 93.5183 17.938 -3.04054 80.5403 0.58676 0.00033077 0.0646653 -41.2581 13.8665 98.1592 -5.53502 57.8489 -7.1634 2.08296 -18.5269 -1.50449 3.58433 -11.208 19.3974 -37.5642 -16.9263 75.8927 2.3921 42.7394 3.49343 -2.16774 -4.41291 0.685377 0.435984 -4.99241 1.29027 
-10.0215 90.633 -43.2158 71.9714 -32.3071 -7.58995 -70.1915 0 88.8779 100.148 72.5042 -15.363 -2.50494 21.1729 6.31713 -123.58 34.944 154.779 173.912 78.7379 -143.636 0.0649392 -15.7567 -27.8326 -63.1658 32.0485 -138.636 16.7589 -1.92727 -95.6094 0.420957 0.000575918 0.35866 -2.04906 6.70149 44.9626 -135.128 -3.76493 93.384 17.9565 -3.01562 80.6218 0.58676 0.00033077 0.0646653 -41.1746 13.8496 98.1004 -5.51628 57.8575 -7.01785 2.04317 -18.5083 -1.50474 3.63441 -11.2563 19.2285 -37.5204 -17.0369 75.7052 2.41863 42.7887 3.66098 -2.33503 -4.33925 0.696484 0.451976 -5.05217 1.22378 
-10.0533 90.6246 -43.2047 72.0394 -32.2964 -7.61759 -70.1915 0 88.8779 100.026 72.5452 -15.3845 -2.43473 21.1684 6.43117 -123.52 34.9763 154.884 173.618 78.7234 -143.152 0.0437456 -15.8274 -27.9985 -63.2362 32.0919 -138.593 16.8833 -1.91266 -95.5144 0.420957 0.000575918 0.35866 -2.04121 6.71103 44.8066 -135.154 -3.8183 93.2902 17.9213 -2.99518 80.6627 0.58676 0.00033077 0.0646653 -41.2324 13.8028 98.1325 -5.50908 57.8475 -6.99153 2.04998 -18.378 -1.49607 3.72655 -11.3621 19.0386 -37.5316 -17.1064 75.7101 2.42683 42.8327 3.68575 -2.53913 -4.35785 0.716391 0.453307 -5.05543 1.21529 
-10.086 90.6245 -43.1931 72.1068 -32.3269 -7.64579 -70.1915 0 88.8779 100.017 72.5309 -15.3756 -2.29333 21.2003 6.26839 -123.568 34.9738 154.872 173.571 78.7136 -143.091 0.0744567 -15.6852 -27.8953 -63.2811 32.0245 -138.705 16.8073 -1.89489 -95.4863 0.420957 0.000575918 0.35866 -2.0426 6.69279 44.9094 -135.207 -3.92111 93.3426 18.1729 -3.05325 80.6253 0.58676 0.00033077 0.0646653 -41.3103 13.7676 98.1687 -5.5457 57.8564 -7.21892 1.91505 -18.4196 -1.50343 3.66766 -11.34 19.5117 -37.5321 -17.068 75.8941 2.39084 42.8482 3.37896 -2.47995 -4.42929 0.714919 0.388895 -5.1328 1.83722 
-10.1146 90.607 -43.2142 72.1723 -32.3509 -7.59224 -70.1915 0 88.8779 100.506 72.4938 -15.7571 -2.31705 21.2466 6.11696 -123.557 34.9443 154.764 173.609 78.7235 -143.29 0.0759009 -15.6994 -27.817 -63.2131 32.1589 -138.83 16.854 -1.88494 -95.4366 0.420957 0.000575918 0.35866 -2.01696 6.62722 44.8388 -135.273 -4.0119 93.1992 18.5006 -3.07451 80.7307 0.58676 0.00033077 0.0646653 -41.3113 13.8192 98.1721 -5.55178 57.919 -7.12263 2.007 -18.5424 -1.50824 3.54472 -11.1454 19.3391 -37.5459 -17.0331 75.9259 2.44069 42.9122 3.7222 -2.25667 -4.42926 0.694544 0.474967 -4.94048 0.906314 
-10.1629 90.5894 -43.2024 72.1601 -32.3417 -7.56373 -70.1915 0 88.8779 100.633 72.4852 -15.8718 -2.38176 21.2552 6.10515 -123.367 34.8448 154.443 174.708 78.8045 -144.279 0.0622297 -15.7867 -27.782 -63.0786 32.257 -138.78 17.0322 -1.91996 -95.4813 0.420957 0.000575918 0.35866 -1.99971 6.55079 44.9401 -135.196 -3.94149 93.1372 18.3859 -3.02329 80.8174 0.58676 0.00033077 0.0646653 -41.2682 13.8631 98.1444 -5.51713 57.9163 -6.89605 2.00921 -18.6861 -1.51752 3.43024 -10.9124 18.8274 -37.4949 -16.9695 75.948 2.43206 42.9505 3.61339 -2.23352 -4.51346 0.697381 0.442027 -4.7071 0.929886 
-10.1896 90.6117 -43.1823 72.1018 -32.3515 -7.59319 -70.1915 0 88.8779 100.219 72.5144 -15.4081 -2.27467 21.2772 6.01752 -123.371 34.8188 154.423 175.171 78.8124 -144.747 0.0656827 -15.7726 -27.7635 -63.0344 32.2151 -138.851 16.9861 -1.92556 -95.5165 0.420957 0.000575918 0.35866 -2.00224 6.56154 44.9272 -135.19 -3.84223 93.1834 17.847 -2.9396 80.7855 0.58676 0.00033077 0.0646653 -41.2106 13.8678 98.0952 -5.55697 57.8985 -7.20297 2.02708 -18.3419 -1.49459 3.71577 -11.3877 19.3595 -37.4599 -16.9417 75.9 2.41535 42.9033 3.52409 -2.59036 -4.38366 0.72233 0.433852 -5.045 1.36902 
-10.2264 90.6114 -43.1668 72.0699 -32.3085 -7.58085 -70.1915 0 88.8779 99.9228 72.4879 -15.0384 -2.22267 21.2457 5.95528 -123.376 34.8504 154.597 174.795 78.7794 -144.519 0.0636916 -15.7878 -27.7499 -63.0516 32.2024 -138.807 16.9638 -1.90214 -95.4503 0.420957 0.000575918 0.35866 -2.03655 6.59987 45.2496 -135.203 -3.63417 93.459 17.9747 -3.01811 80.624 0.58676 0.00033077 0.0646653 -41.1481 13.8602 98.0197 -5.52054 57.8598 -7.04215 1.97665 -18.3391 -1.49605 3.75837 -11.4107 19.0679 -37.4553 -16.9842 75.7648 2.43985 42.9006 3.72525 -2.37843 -4.48873 0.708937 0.454012 -4.8079 0.943763 
-10.2567 90.6184 -43.1797 72.0822 -32.2344 -7.54211 -70.1915 0 88.8779 99.6042 72.5287 -14.783 -2.20062 21.1999 6.16247 -123.276 34.9425 154.801 173.935 78.7708 -143.569 -0.0115517 -16.0753 -28.1982 -63.2878 32.1069 -138.469 16.9977 -1.91435 -95.4765 0.420957 0.000575918 0.35866 -2.00628 6.52042 45.1785 -135.204 -3.62753 93.4221 18.3201 -3.05552 80.6935 0.58676 0.00033077 0.0646653 -41.0876 13.8182 97.9195 -5.53191 57.9084 -7.01134 1.89509 -18.4297 -1.50484 3.61421 -11.2302 19.2457 -37.4861 -17.0202 75.6637 2.43194 42.8851 3.67618 -2.32234 -4.55565 0.707793 0.403256 -4.67704 1.21484 
-10.2645 90.615 -43.1678 72.0893 -32.2644 -7.52727 -70.1915 0 88.8779 99.6571 72.5052 -14.7288 -2.2603 21.2073 6.07194 -123.172 34.8965 154.822 173.685 78.7168 -143.266 0.00379473 -16.0525 -27.9911 -63.3427 32.1909 -138.354 16.9813 -1.90459 -95.4516 0.420957 0.000575918 0.35866 -2.04077 6.62568 45.1912 -135.242 -3.66657 93.2724 18.0338 -2.99358 80.7249 0.58676 0.00033077 0.0646653 -41.0919 13.8765 97.9266 -5.57257 57.9301 -7.23926 1.78347 -18.4341 -1.50903 3.61501 -11.2574 19.443 -37.4722 -16.9499 75.7267 2.41816 42.8835 3.56555 -2.29127 -4.53694 0.70391 0.390631 -4.7342 1.38215 
